<svg xmlns="http://www.w3.org/2000/svg" width="20" height="20" viewBox="0 0 20 20">
  <g transform="translate(-4294 -7998)">
    <rect id="Rectangle_4055" data-name="Rectangle 4055" width="20" height="20" transform="translate(4294 7998)" fill="#fff" opacity="0"/>
    <path id="color-palette" d="M7,16a1,1,0,1,0,1,1A1,1,0,0,0,7,16Zm12.06-4,1.23-1.23a3,3,0,0,0,0-4.24L17.46,3.71a3,3,0,0,0-4.24,0L12,4.94A3,3,0,0,0,9,2H5A3,3,0,0,0,2,5V19a3,3,0,0,0,3,3H19a3,3,0,0,0,3-3V15a3,3,0,0,0-2.941-3ZM10,19a1,1,0,0,1-1,1H5a1,1,0,0,1-1-1V5A1,1,0,0,1,5,4H9a1,1,0,0,1,1,1ZM12,7.76l2.64-2.64a1,1,0,0,1,1.41,0L18.88,8a1,1,0,0,1,0,1.41L16,12.29h0l-4,3.95ZM20,19a1,1,0,0,1-1,1H11.82a3.12,3.12,0,0,0,.17-.92L17.07,14H19a1,1,0,0,1,1,1Z" transform="translate(4292 7996)" fill="#bfd3e9"/>
  </g>
</svg>
