<svg xmlns="http://www.w3.org/2000/svg" width="20" height="20" viewBox="0 0 20 20">
  <g transform="translate(-3891 -8824)">
    <rect id="cms-2" data-name="cms" width="20" height="20" transform="translate(3891 8824)" fill="#fff" opacity="0"/>
    <path id="cable-car" d="M19,17.5H13V20h4.62a1,1,0,0,1,0,2H6.38a1,1,0,0,1,0-2H11V17.5H5a3,3,0,0,1-3-3V5A3,3,0,0,1,5,2H19a3,3,0,0,1,3,3v9.5A3,3,0,0,1,19,17.5ZM11,4H5A1,1,0,0,0,4,5V8.75h7a.5.5,0,0,1,0-.13V4.12A.53.53,0,0,1,11,4Zm9,1a1,1,0,0,0-1-1H13a.53.53,0,0,1,0,.12v4.5a.5.5,0,0,1,0,.13h7Zm0,5.75H4V14.5a1,1,0,0,0,1,1H19a1,1,0,0,0,1-1Z" transform="translate(3889 8822)" fill="#bfd3e9"/>
  </g>
</svg>
