<svg xmlns="http://www.w3.org/2000/svg" width="20" height="20" viewBox="0 0 20 20">
  <g transform="translate(-4294 -7964)">
    <rect id="Rectangle_4054" data-name="Rectangle 4054" width="20" height="20" transform="translate(4294 7964)" fill="#fff" opacity="0"/>
    <path id="dashboard_3_" data-name="dashboard (3)" d="M15.29,10.29l-2.78,2.78A2.09,2.09,0,0,0,12,13a2,2,0,0,0-2,2,2.09,2.09,0,0,0,.07.51l-.78.78a1,1,0,1,0,1.42,1.42l.78-.78A2.09,2.09,0,0,0,12,17a2,2,0,0,0,2-2,2.09,2.09,0,0,0-.07-.51l2.78-2.78a1,1,0,1,0-1.42-1.42ZM12,4A10,10,0,0,0,3.69,19.56a1,1,0,0,0,1.66-1.12,8,8,0,1,1,13.3,0,1,1,0,0,0,1.66,1.12A10,10,0,0,0,12,4Z" transform="translate(4292 7962)" fill="#bfd3e9"/>
  </g>
</svg>
