<svg xmlns="http://www.w3.org/2000/svg" width="20" height="20.004" viewBox="0 0 20 20.004">
  <g transform="translate(-4294 -8170)">
    <rect id="Rectangle_4060" data-name="Rectangle 4060" width="20" height="20" transform="translate(4294 8170)" fill="#fff" opacity="0"/>
    <path id="repair-tool" d="M21.669,15.551l-4.51-4.5a6.836,6.836,0,0,0,.14-1.4A7.654,7.654,0,0,0,6.411,2.718a1,1,0,0,0-.289,1.617l4.341,4.331-1.8,1.8L4.335,6.121a1.013,1.013,0,0,0-1.617.289A7.654,7.654,0,0,0,9.7,17.3a6.836,6.836,0,0,0,1.4-.14l4.5,4.51a1,1,0,1,0,1.417-1.417l-4.89-4.89a1,1,0,0,0-.948-.259,5.868,5.868,0,0,1-1.477.2A5.658,5.658,0,0,1,4,9.654a5.987,5.987,0,0,1,.08-1l3.912,3.922a1,1,0,0,0,1.417,0l3.173-3.2a1,1,0,0,0,0-1.387L8.7,4.076a6.107,6.107,0,0,1,1-.08,5.658,5.658,0,0,1,5.648,5.658,5.868,5.868,0,0,1-.2,1.477,1,1,0,0,0,.259.948l4.89,4.89a1,1,0,1,0,1.417-1.417Z" transform="translate(4291.998 8168.04)" fill="#bfd3e9"/>
  </g>
</svg>
